<svg width="128" height="64" viewBox="0 0 128 64" fill="none" xmlns="http://www.w3.org/2000/svg">
<g clip-path="url(#clip0_2_2)">
<path d="M20.3203 26.4609V31.8047H28.6406C29.0156 31.8047 29.2969 31.8672 29.4844 31.9922C29.8906 32.2734 30.3125 32.6094 30.75 33C31.1875 33.3906 31.6484 33.8594 32.1328 34.4062C32.2891 34.6094 32.3672 34.7734 32.3672 34.8984C32.3672 35.0391 32.2891 35.1953 32.1328 35.3672C31.6484 35.9141 31.1875 36.3828 30.75 36.7734C30.3125 37.1641 29.8906 37.5 29.4844 37.7812C29.2656 37.9062 28.9844 37.9688 28.6406 37.9688H20.3203V49.7578C20.3203 50.2266 20.2188 50.5547 20.0156 50.7422C19.8281 50.9141 19.5 51 19.0312 51H14.0391C13.5703 51 13.2344 50.9141 13.0312 50.7422C12.8438 50.5547 12.75 50.2266 12.75 49.7578V23.6719C12.75 22.1094 12.8906 20.875 13.1719 19.9688C13.4688 19.0469 14.0312 18.3906 14.8594 18C15.7031 17.5938 16.9297 17.3906 18.5391 17.3906H29.6016C29.9766 17.3906 30.2578 17.4531 30.4453 17.5781C30.8516 17.8594 31.2734 18.1953 31.7109 18.5859C32.1484 18.9766 32.6094 19.4453 33.0938 19.9922C33.25 20.1953 33.3281 20.3594 33.3281 20.4844C33.3281 20.625 33.25 20.7812 33.0938 20.9531C32.6094 21.5 32.1484 21.9688 31.7109 22.3594C31.2734 22.75 30.8516 23.0859 30.4453 23.3672C30.2266 23.4922 29.9453 23.5547 29.6016 23.5547H22.9922C21.9609 23.5547 21.2578 23.7734 20.8828 24.2109C20.5078 24.6484 20.3203 25.3984 20.3203 26.4609ZM48.1641 51.5859C45.5234 51.5859 43.2266 51.1641 41.2734 50.3203C39.3203 49.4609 37.8047 48.1328 36.7266 46.3359C35.6484 44.5391 35.1094 42.2188 35.1094 39.375C35.1094 35.1094 36.2031 31.8828 38.3906 29.6953C40.5781 27.5078 43.4844 26.4141 47.1094 26.4141C49.4688 26.4141 51.4609 26.8359 53.0859 27.6797C54.7266 28.5234 55.9688 29.6875 56.8125 31.1719C57.6719 32.6562 58.1016 34.3516 58.1016 36.2578C58.1016 38.1172 57.625 39.4141 56.6719 40.1484C55.7188 40.8828 54.3281 41.25 52.5 41.25H42.4453C42.5703 42.8594 43.1562 44.0859 44.2031 44.9297C45.2656 45.7734 46.7031 46.1953 48.5156 46.1953C49.9531 46.1953 51.1016 45.9844 51.9609 45.5625C52.8359 45.125 53.4453 44.7812 53.7891 44.5312C54.0859 44.3125 54.4219 44.2109 54.7969 44.2266C55.0938 44.2266 55.5156 44.2891 56.0625 44.4141C56.625 44.5234 57.1797 44.7344 57.7266 45.0469C58.1172 45.25 58.3125 45.5312 58.3125 45.8906C58.3125 46.0938 58.2734 46.3828 58.1953 46.7578C58.1484 46.9766 58.0703 47.2969 57.9609 47.7188C57.8516 48.125 57.7109 48.5078 57.5391 48.8672C57.4453 49.0391 57.2969 49.2031 57.0938 49.3594C56.7812 49.5781 56.2734 49.8672 55.5703 50.2266C54.8828 50.5859 53.9375 50.8984 52.7344 51.1641C51.5312 51.4453 50.0078 51.5859 48.1641 51.5859ZM42.3984 36.4453H50.0391C50.8359 36.4453 51.2344 36.0781 51.2344 35.3438C51.2344 34.2344 50.8828 33.3047 50.1797 32.5547C49.4922 31.7891 48.4531 31.4062 47.0625 31.4062C45.5469 31.4062 44.4297 31.8906 43.7109 32.8594C43.0078 33.8281 42.5703 35.0234 42.3984 36.4453ZM86.4609 36.0703V49.7578C86.4609 50.2266 86.3594 50.5547 86.1562 50.7422C85.9688 50.9141 85.6406 51 85.1719 51H80.3438C79.875 51 79.5391 50.9141 79.3359 50.7422C79.1484 50.5547 79.0547 50.2266 79.0547 49.7578V37.2891C79.0547 35.5859 78.6953 34.3438 77.9766 33.5625C77.2578 32.7812 76.2812 32.3906 75.0469 32.3906C73.8125 32.3906 72.8594 32.6562 72.1875 33.1875C71.5312 33.7188 71.0234 34.3906 70.6641 35.2031V49.7578C70.6641 50.2266 70.5625 50.5547 70.3594 50.7422C70.1719 50.9141 69.8438 51 69.375 51H64.5469C64.0781 51 63.7422 50.9141 63.5391 50.7422C63.3516 50.5547 63.2578 50.2266 63.2578 49.7578V30.1172C63.2578 29.7422 63.3359 29.4531 63.4922 29.25C63.8203 28.8125 64.2109 28.3672 64.6641 27.9141C65.1328 27.4609 65.7031 26.9766 66.375 26.4609C66.5781 26.3047 66.7734 26.2266 66.9609 26.2266C67.1328 26.2266 67.3281 26.3047 67.5469 26.4609C68.2031 26.9766 68.7656 27.4688 69.2344 27.9375C69.7031 28.4062 70.1172 28.8906 70.4766 29.3906H70.5938C70.8594 29.0469 71.2578 28.6484 71.7891 28.1953C72.3203 27.7266 73.0625 27.3125 74.0156 26.9531C74.9844 26.5938 76.2188 26.4141 77.7188 26.4141C79.1875 26.4141 80.5859 26.7109 81.9141 27.3047C83.2422 27.8984 84.3281 28.8984 85.1719 30.3047C86.0312 31.7109 86.4609 33.6328 86.4609 36.0703ZM115.992 36.0703V49.7578C115.992 50.2266 115.891 50.5547 115.688 50.7422C115.5 50.9141 115.172 51 114.703 51H109.875C109.406 51 109.07 50.9141 108.867 50.7422C108.68 50.5547 108.586 50.2266 108.586 49.7578V37.2891C108.586 35.5859 108.227 34.3438 107.508 33.5625C106.789 32.7812 105.812 32.3906 104.578 32.3906C103.344 32.3906 102.391 32.6562 101.719 33.1875C101.062 33.7188 100.555 34.3906 100.195 35.2031V49.7578C100.195 50.2266 100.094 50.5547 99.8906 50.7422C99.7031 50.9141 99.375 51 98.9062 51H94.0781C93.6094 51 93.2734 50.9141 93.0703 50.7422C92.8828 50.5547 92.7891 50.2266 92.7891 49.7578V30.1172C92.7891 29.7422 92.8672 29.4531 93.0234 29.25C93.3516 28.8125 93.7422 28.3672 94.1953 27.9141C94.6641 27.4609 95.2344 26.9766 95.9062 26.4609C96.1094 26.3047 96.3047 26.2266 96.4922 26.2266C96.6641 26.2266 96.8594 26.3047 97.0781 26.4609C97.7344 26.9766 98.2969 27.4688 98.7656 27.9375C99.2344 28.4062 99.6484 28.8906 100.008 29.3906H100.125C100.391 29.0469 100.789 28.6484 101.32 28.1953C101.852 27.7266 102.594 27.3125 103.547 26.9531C104.516 26.5938 105.75 26.4141 107.25 26.4141C108.719 26.4141 110.117 26.7109 111.445 27.3047C112.773 27.8984 113.859 28.8984 114.703 30.3047C115.562 31.7109 115.992 33.6328 115.992 36.0703Z" fill="black"/>
</g>
<defs>
<clipPath id="clip0_2_2">
<rect width="128" height="64" fill="white"/>
</clipPath>
</defs>
</svg>
