<svg width="64" height="64" viewBox="0 0 64 64" fill="none" xmlns="http://www.w3.org/2000/svg">
<g clip-path="url(#clip0_1_3)">
<rect width="64" height="64" rx="13" fill="white"/>
<path d="M9.66016 26.7305V29.4023H13.8203C14.0078 29.4023 14.1484 29.4336 14.2422 29.4961C14.4453 29.6367 14.6562 29.8047 14.875 30C15.0938 30.1953 15.3242 30.4297 15.5664 30.7031C15.6445 30.8047 15.6836 30.8867 15.6836 30.9492C15.6836 31.0195 15.6445 31.0977 15.5664 31.1836C15.3242 31.457 15.0938 31.6914 14.875 31.8867C14.6562 32.082 14.4453 32.25 14.2422 32.3906C14.1328 32.4531 13.9922 32.4844 13.8203 32.4844H9.66016V38.3789C9.66016 38.6133 9.60938 38.7773 9.50781 38.8711C9.41406 38.957 9.25 39 9.01562 39H6.51953C6.28516 39 6.11719 38.957 6.01562 38.8711C5.92188 38.7773 5.875 38.6133 5.875 38.3789V25.3359C5.875 24.5547 5.94531 23.9375 6.08594 23.4844C6.23438 23.0234 6.51562 22.6953 6.92969 22.5C7.35156 22.2969 7.96484 22.1953 8.76953 22.1953H14.3008C14.4883 22.1953 14.6289 22.2266 14.7227 22.2891C14.9258 22.4297 15.1367 22.5977 15.3555 22.793C15.5742 22.9883 15.8047 23.2227 16.0469 23.4961C16.125 23.5977 16.1641 23.6797 16.1641 23.7422C16.1641 23.8125 16.125 23.8906 16.0469 23.9766C15.8047 24.25 15.5742 24.4844 15.3555 24.6797C15.1367 24.875 14.9258 25.043 14.7227 25.1836C14.6133 25.2461 14.4727 25.2773 14.3008 25.2773H10.9961C10.4805 25.2773 10.1289 25.3867 9.94141 25.6055C9.75391 25.8242 9.66016 26.1992 9.66016 26.7305ZM23.582 39.293C22.2617 39.293 21.1133 39.082 20.1367 38.6602C19.1602 38.2305 18.4023 37.5664 17.8633 36.668C17.3242 35.7695 17.0547 34.6094 17.0547 33.1875C17.0547 31.0547 17.6016 29.4414 18.6953 28.3477C19.7891 27.2539 21.2422 26.707 23.0547 26.707C24.2344 26.707 25.2305 26.918 26.043 27.3398C26.8633 27.7617 27.4844 28.3438 27.9062 29.0859C28.3359 29.8281 28.5508 30.6758 28.5508 31.6289C28.5508 32.5586 28.3125 33.207 27.8359 33.5742C27.3594 33.9414 26.6641 34.125 25.75 34.125H20.7227C20.7852 34.9297 21.0781 35.543 21.6016 35.9648C22.1328 36.3867 22.8516 36.5977 23.7578 36.5977C24.4766 36.5977 25.0508 36.4922 25.4805 36.2812C25.918 36.0625 26.2227 35.8906 26.3945 35.7656C26.543 35.6562 26.7109 35.6055 26.8984 35.6133C27.0469 35.6133 27.2578 35.6445 27.5312 35.707C27.8125 35.7617 28.0898 35.8672 28.3633 36.0234C28.5586 36.125 28.6562 36.2656 28.6562 36.4453C28.6562 36.5469 28.6367 36.6914 28.5977 36.8789C28.5742 36.9883 28.5352 37.1484 28.4805 37.3594C28.4258 37.5625 28.3555 37.7539 28.2695 37.9336C28.2227 38.0195 28.1484 38.1016 28.0469 38.1797C27.8906 38.2891 27.6367 38.4336 27.2852 38.6133C26.9414 38.793 26.4688 38.9492 25.8672 39.082C25.2656 39.2227 24.5039 39.293 23.582 39.293ZM20.6992 31.7227H24.5195C24.918 31.7227 25.1172 31.5391 25.1172 31.1719C25.1172 30.6172 24.9414 30.1523 24.5898 29.7773C24.2461 29.3945 23.7266 29.2031 23.0312 29.2031C22.2734 29.2031 21.7148 29.4453 21.3555 29.9297C21.0039 30.4141 20.7852 31.0117 20.6992 31.7227ZM42.7305 31.5352V38.3789C42.7305 38.6133 42.6797 38.7773 42.5781 38.8711C42.4844 38.957 42.3203 39 42.0859 39H39.6719C39.4375 39 39.2695 38.957 39.168 38.8711C39.0742 38.7773 39.0273 38.6133 39.0273 38.3789V32.1445C39.0273 31.293 38.8477 30.6719 38.4883 30.2812C38.1289 29.8906 37.6406 29.6953 37.0234 29.6953C36.4062 29.6953 35.9297 29.8281 35.5938 30.0938C35.2656 30.3594 35.0117 30.6953 34.832 31.1016V38.3789C34.832 38.6133 34.7812 38.7773 34.6797 38.8711C34.5859 38.957 34.4219 39 34.1875 39H31.7734C31.5391 39 31.3711 38.957 31.2695 38.8711C31.1758 38.7773 31.1289 38.6133 31.1289 38.3789V28.5586C31.1289 28.3711 31.168 28.2266 31.2461 28.125C31.4102 27.9062 31.6055 27.6836 31.832 27.457C32.0664 27.2305 32.3516 26.9883 32.6875 26.7305C32.7891 26.6523 32.8867 26.6133 32.9805 26.6133C33.0664 26.6133 33.1641 26.6523 33.2734 26.7305C33.6016 26.9883 33.8828 27.2344 34.1172 27.4688C34.3516 27.7031 34.5586 27.9453 34.7383 28.1953H34.7969C34.9297 28.0234 35.1289 27.8242 35.3945 27.5977C35.6602 27.3633 36.0312 27.1562 36.5078 26.9766C36.9922 26.7969 37.6094 26.707 38.3594 26.707C39.0938 26.707 39.793 26.8555 40.457 27.1523C41.1211 27.4492 41.6641 27.9492 42.0859 28.6523C42.5156 29.3555 42.7305 30.3164 42.7305 31.5352ZM57.4961 31.5352V38.3789C57.4961 38.6133 57.4453 38.7773 57.3438 38.8711C57.25 38.957 57.0859 39 56.8516 39H54.4375C54.2031 39 54.0352 38.957 53.9336 38.8711C53.8398 38.7773 53.793 38.6133 53.793 38.3789V32.1445C53.793 31.293 53.6133 30.6719 53.2539 30.2812C52.8945 29.8906 52.4062 29.6953 51.7891 29.6953C51.1719 29.6953 50.6953 29.8281 50.3594 30.0938C50.0312 30.3594 49.7773 30.6953 49.5977 31.1016V38.3789C49.5977 38.6133 49.5469 38.7773 49.4453 38.8711C49.3516 38.957 49.1875 39 48.9531 39H46.5391C46.3047 39 46.1367 38.957 46.0352 38.8711C45.9414 38.7773 45.8945 38.6133 45.8945 38.3789V28.5586C45.8945 28.3711 45.9336 28.2266 46.0117 28.125C46.1758 27.9062 46.3711 27.6836 46.5977 27.457C46.832 27.2305 47.1172 26.9883 47.4531 26.7305C47.5547 26.6523 47.6523 26.6133 47.7461 26.6133C47.832 26.6133 47.9297 26.6523 48.0391 26.7305C48.3672 26.9883 48.6484 27.2344 48.8828 27.4688C49.1172 27.7031 49.3242 27.9453 49.5039 28.1953H49.5625C49.6953 28.0234 49.8945 27.8242 50.1602 27.5977C50.4258 27.3633 50.7969 27.1562 51.2734 26.9766C51.7578 26.7969 52.375 26.707 53.125 26.707C53.8594 26.707 54.5586 26.8555 55.2227 27.1523C55.8867 27.4492 56.4297 27.9492 56.8516 28.6523C57.2812 29.3555 57.4961 30.3164 57.4961 31.5352Z" fill="black"/>
</g>
<defs>
<clipPath id="clip0_1_3">
<rect width="64" height="64" fill="white"/>
</clipPath>
</defs>
</svg>
